<svg width="177" height="106" viewBox="0 0 177 106" fill="none" xmlns="http://www.w3.org/2000/svg">
<g clip-path="url(#clip0_718_916)">
<path d="M164.416 69.035L164.325 68.93L164.377 68.794C164.769 67.768 165.096 66.6988 165.338 65.6173L165.371 65.4813L165.508 65.438C166.227 65.2341 167.07 65.0487 167.887 64.8633C168.168 64.8014 168.456 64.7396 168.737 64.6778L166.364 63.6025C160.559 60.4319 154.428 58.4418 148.963 57.7991C147.237 57.5951 145.498 57.5086 143.753 57.5148C143.969 57.6755 144.165 57.8609 144.341 58.0586C144.354 58.0772 144.361 58.0957 144.387 58.1143L144.263 58.1019C144.518 58.3862 144.733 58.7014 144.91 59.0537C145.237 59.7212 145.381 60.4566 145.315 61.1859C145.315 61.2045 145.302 61.2292 145.302 61.2539L145.224 61.1674C145.191 61.5382 145.113 61.909 144.969 62.2675C144.871 62.5271 144.747 62.7743 144.596 63.0091C144.583 63.0277 144.57 63.0586 144.55 63.0771C144.296 63.4232 143.982 63.7384 143.609 64.0042C143.367 64.1834 143.112 64.3317 142.818 64.4615C142.119 64.7706 141.334 64.9065 140.569 64.8447C139.367 64.7458 138.275 64.1958 137.523 63.3367C137.294 63.0709 137.085 62.7681 136.935 62.4529C136.811 62.2057 136.713 61.9399 136.641 61.668C136.628 61.6371 136.621 61.6062 136.621 61.5691C136.53 61.1736 136.51 60.7657 136.549 60.3577L136.517 60.3825C136.523 60.2959 136.53 60.2156 136.549 60.1291C136.549 60.0858 136.556 60.0364 136.569 59.9931C136.732 59.2082 137.144 58.4851 137.726 57.9165C135.595 58.1884 133.49 58.5963 131.437 59.1155C126.397 60.3886 121.371 62.3417 116.35 64.6778C116.363 64.7706 116.383 64.8633 116.403 64.956L116.429 65.0981L116.318 65.1846C116.023 65.4133 115.697 65.6482 115.363 65.883V65.1414C113.33 66.1055 111.304 67.1253 109.264 68.1883V84.8939C111.297 83.7196 113.324 82.5577 115.363 81.4329V70.3947C115.442 70.3947 115.527 70.3947 115.605 70.3947C116.455 70.3947 117.331 70.3947 118.096 70.4565H118.239L118.298 70.5863C118.788 71.5813 119.364 72.564 119.998 73.4849L120.024 73.5282L119.874 73.6456L119.978 73.763C119.612 74.3996 119.168 75.0918 118.717 75.7717C118.128 76.674 117.514 77.6134 117.141 78.3736C117.56 78.8742 118.004 79.3686 118.455 79.8445C119.318 79.6282 120.397 79.208 121.442 78.8124C122.227 78.5096 123.024 78.2067 123.737 77.9719L123.822 78.0646L123.972 77.9472L124.038 78.009C124.901 78.7506 125.822 79.449 126.777 80.0732L126.901 80.1474L126.881 80.2895C126.809 81.0065 126.665 81.8284 126.528 82.6195C126.345 83.6887 126.156 84.7765 126.123 85.6294C126.75 85.9631 127.339 86.2536 127.927 86.5194C128.62 86.0064 129.444 85.24 130.235 84.4984C130.856 83.9236 131.496 83.3241 132.091 82.8358L132.196 82.7431L132.34 82.7926C133.425 83.1696 134.556 83.4724 135.699 83.7073L135.686 83.8556L135.883 83.868C136.098 84.5478 136.301 85.3451 136.49 86.1115C136.752 87.1745 137.02 88.2684 137.347 89.0781C138.033 89.1522 138.733 89.2078 139.426 89.2449C139.877 88.5033 140.341 87.4588 140.792 86.4576C141.119 85.7283 141.459 84.9805 141.785 84.3377L141.851 84.2079H141.995C143.171 84.1523 144.341 84.0348 145.479 83.8371L145.616 83.8124L145.707 83.9236C146.204 84.4984 146.734 85.1906 147.237 85.8581C147.891 86.711 148.564 87.5948 149.166 88.2128C149.787 88.0397 150.421 87.8543 151.1 87.6257C151.212 86.7789 151.218 85.6726 151.231 84.5911C151.231 83.7876 151.231 82.9533 151.283 82.2364L151.297 82.088L151.434 82.0324C152.48 81.5689 153.493 81.0435 154.447 80.4502L154.5 80.5058L154.663 80.3761L154.755 80.4193C155.434 80.7654 156.186 81.2042 156.925 81.6369C157.886 82.1931 158.873 82.774 159.683 83.1263C160.213 82.7308 160.729 82.3167 161.239 81.8841C161.004 81.0683 160.566 80.0485 160.148 79.0658C159.821 78.3118 159.487 77.5331 159.245 76.8347L159.193 76.7049L159.298 76.606C160.089 75.7902 160.827 74.9188 161.481 74.0164L161.573 73.899L161.716 73.9175C162.475 73.9855 163.344 74.1215 164.187 74.2513C165.116 74.3996 166.077 74.5479 166.881 74.6097C167.051 74.6221 167.207 74.6283 167.364 74.6345C167.717 74.0411 168.025 73.4849 168.306 72.9287C167.77 72.2736 166.959 71.501 166.175 70.747C165.554 70.1599 164.926 69.5542 164.41 68.9918L164.416 69.035ZM125.044 69.5542C123.652 67.3416 122.783 64.8447 122.541 62.181L125.659 62.4282C125.894 64.2885 126.509 66.0499 127.437 67.6383L125.044 69.548V69.5542ZM136.262 77.564C133.529 76.8903 131.052 75.648 128.986 73.9855L131.379 72.0758C132.882 73.213 134.621 74.0844 136.523 74.6159L136.262 77.564ZM142.354 78.0893L142.616 75.1413C144.609 74.9373 146.505 74.3749 148.211 73.4973L150.231 75.7593C147.878 77.0757 145.185 77.8854 142.354 78.0955V78.0893ZM154.944 72.0572L154.369 71.4145L152.924 69.8014C154.166 68.3614 155.114 66.6741 155.696 64.8324L158.814 65.0796C158.095 67.7062 156.748 70.0795 154.944 72.0572ZM68.1732 88.2746C68.1732 88.2746 68.1078 88.324 68.0751 88.3488L68.049 88.3117C67.5064 88.4724 66.9704 88.6331 66.4474 88.7876L66.82 89.2511C66.3755 89.5539 65.931 89.8444 65.4734 90.1287L64.8851 89.2387C64.3491 89.3871 63.8261 89.5354 63.3162 89.6714L64.1399 90.9136C63.6692 91.1794 63.192 91.4328 62.7149 91.6738L61.852 90.0607C61.3029 90.2029 60.7669 90.3327 60.2439 90.4625L61.1983 92.2733C60.7015 92.4896 60.2047 92.6998 59.7013 92.8975L58.8385 90.79C52.6938 92.1868 48.046 92.5947 42.993 92.502C41.6725 92.4773 40.424 92.4216 39.2473 92.3413L38.7701 94.591C38.2341 94.4797 37.7046 94.3499 37.1817 94.2201L37.8092 92.2239C37.2601 92.1744 36.7306 92.1188 36.2207 92.057L35.6716 93.7937C35.1487 93.633 34.6323 93.4661 34.1224 93.2807L34.7303 91.8592C34.1812 91.7789 33.6517 91.6985 33.1353 91.6058L32.6581 92.7245C32.1548 92.5205 31.658 92.3042 31.1677 92.0817L31.5861 91.3154C31.0304 91.2041 30.5075 91.0929 29.9976 90.9754L29.7623 91.4019C29.2851 91.1547 28.8079 90.8951 28.3438 90.6293L28.383 90.5675C24.134 89.4241 21.9245 88.1943 21.8003 88.1201L21.0943 87.7184C21.0943 87.7184 22.0618 86.5255 22.8854 85.1411L22.0226 86.0311C21.6303 85.6727 21.2447 85.3018 20.8721 84.931L22.7808 83.3056C23.0162 83.5466 23.258 83.7753 23.5064 84.0039C23.7025 83.5899 23.8594 83.182 23.9575 82.8049C24.1471 82.0448 24.1144 80.0238 24.0229 78.1758C20.4798 73.7568 18.375 68.2563 18.375 62.2922C18.375 59.8077 18.741 57.4035 19.4209 55.123C15.453 54.2515 8.39964 52.7868 8.39964 52.7868C8.39964 52.7868 9.49784 48.374 14.9888 43.0465C15.8844 42.175 19.8588 39.5051 19.8588 39.5051L20.6956 40.049C22.7547 41.2974 24.9184 42.3172 27.141 43.133C32.1286 38.6893 38.8486 35.9575 46.2288 35.9575C52.9356 35.9575 59.0934 38.2072 63.9046 41.9525C65.9506 41.1552 68.0163 40.2653 70.1081 39.3135L70.5199 38.9179C70.5657 38.9674 70.618 39.0168 70.6637 39.0601C74.1479 37.4656 77.704 35.7041 81.3451 33.8747C80.5672 33.0157 79.7566 32.1875 78.9068 31.384C78.057 30.5806 77.1222 29.7586 76.1809 29.0046C74.9846 29.5794 73.7622 30.1603 72.6575 30.6053L72.4287 30.698L72.2326 30.5497C70.6768 29.4063 69.0099 28.3495 67.2776 27.4162L67.0619 27.2988V27.0639C67.088 25.9329 67.1861 24.6412 67.2907 23.3742C66.284 22.886 65.2577 22.4348 64.2118 22.0146C62.9763 21.5201 61.7278 21.0813 60.4662 20.692C59.5902 21.6561 58.6947 22.6326 57.8579 23.4484L57.688 23.6153L57.4461 23.5535C55.5504 23.0652 53.5828 22.6944 51.6021 22.4595L51.3537 22.4286L51.2622 22.2123C50.8242 21.1617 50.3928 19.9318 49.9809 18.7204C48.7389 18.6277 47.4904 18.5783 46.2288 18.5783C44.9671 18.5783 43.7186 18.6215 42.4766 18.7204C42.0582 19.9256 41.6333 21.1555 41.1953 22.2123L41.1038 22.4286L40.8554 22.4595C38.8747 22.6944 36.9137 23.0652 35.0114 23.5535L34.7695 23.6153L34.593 23.4484C33.7563 22.6326 32.8608 21.6561 31.9848 20.692C30.7232 21.0751 29.4681 21.5201 28.2392 22.0146C27.1933 22.4348 26.167 22.886 25.1603 23.3742C25.2649 24.6412 25.3695 25.9268 25.3891 27.0639V27.2988L25.1734 27.4162C23.4476 28.3495 21.7807 29.4063 20.2184 30.5497L20.0223 30.698L19.7935 30.6053C18.6887 30.1603 17.4663 29.5794 16.2701 29.0046C15.3353 29.7586 14.4267 30.5559 13.5442 31.384C12.6617 32.2122 11.8315 33.0713 11.0275 33.9551C11.6354 35.0861 12.2499 36.2418 12.7205 37.2863L12.8186 37.5026L12.6617 37.688C11.4458 39.1713 10.328 40.7473 9.34749 42.3728L9.22329 42.5767H8.97488C7.77209 42.552 6.41241 42.4593 5.06581 42.3604C4.54939 43.3122 4.0722 44.2825 3.62769 45.2714C3.10474 46.4395 2.64061 47.6199 2.22879 48.8128C3.25508 49.6409 4.28792 50.4815 5.14425 51.2787L5.32075 51.4394L5.25538 51.6681C4.73896 53.4604 4.34675 55.3207 4.09835 57.1934L4.06566 57.4282L3.83687 57.5148C2.71906 57.9288 1.41821 58.3368 0.143513 58.7261C0.0454594 59.9004 -0.00683594 61.0809 -0.00683594 62.2737C-0.00683594 63.4665 0.0389225 64.6469 0.143513 65.8212C1.41821 66.2168 2.71906 66.6185 3.83687 67.0326L4.06566 67.1191L4.09835 67.354C4.34675 69.2266 4.73896 71.0807 5.25538 72.8792L5.32075 73.1079L5.14425 73.2748C4.28138 74.0659 3.25508 74.9126 2.22879 75.7408C2.63408 76.9336 3.10474 78.1202 3.62769 79.2821C4.0722 80.271 4.54939 81.2413 5.06581 82.1931C6.40588 82.0942 7.77209 82.0015 8.96835 81.9768H9.21675L9.34095 82.1807C10.3215 83.8062 11.4393 85.3822 12.6552 86.8655L12.8121 87.0509L12.714 87.2672C12.2368 88.3117 11.6289 89.4674 11.0209 90.5984C11.8184 91.4822 12.6552 92.3413 13.5376 93.1695C14.4201 93.9976 15.3222 94.7887 16.257 95.5489C17.4533 94.9742 18.6822 94.3932 19.7804 93.9482L20.0092 93.8555L20.2053 93.9976C21.7742 95.1472 23.4411 96.2041 25.1603 97.1311L25.376 97.2485V97.4834C25.3499 98.6144 25.2518 99.9061 25.1472 101.173C26.1539 101.661 27.1802 102.113 28.2261 102.533C29.455 103.027 30.7101 103.466 31.9717 103.855C32.8477 102.891 33.7432 101.915 34.58 101.099L34.7499 100.932L34.9918 100.994C36.8875 101.482 38.8551 101.853 40.8358 102.088L41.0842 102.119L41.1757 102.335C41.6137 103.386 42.0451 104.622 42.4635 105.827C43.7055 105.92 44.9541 105.969 46.2157 105.969C47.4773 105.969 48.7259 105.926 49.9744 105.827C50.3862 104.622 50.8177 103.392 51.2556 102.335L51.3472 102.119L51.5956 102.088C53.5762 101.853 55.5373 101.482 57.4396 100.994L57.6814 100.932L57.8514 101.099C58.6881 101.915 59.5837 102.891 60.4596 103.855C61.7212 103.466 62.9763 103.027 64.2053 102.533C65.2512 102.113 66.2775 101.661 67.2842 101.173C67.1796 99.9061 67.0815 98.6144 67.0554 97.4834V97.2485L67.2711 97.1311C68.9968 96.1979 70.6637 95.141 72.2261 93.9915L72.4222 93.8493L72.651 93.942C73.7557 94.387 74.9716 94.968 76.1744 95.5427C77.1091 94.7887 78.0178 93.9977 78.8937 93.1633C79.7697 92.3289 80.6064 91.476 81.4104 90.5923C80.8025 89.4551 80.1946 88.2993 79.7174 87.261L79.6193 87.0447L79.7697 86.8593C80.9398 85.4316 82.0184 83.9236 82.9662 82.3723C78.5146 84.5416 73.978 86.4576 69.2714 87.91C68.8988 88.0212 68.5392 88.1325 68.1797 88.2437L68.1732 88.2746ZM68.1536 36.8599C68.5654 37.1936 68.9772 37.5335 69.376 37.892L67.5783 39.6225C67.2319 39.3197 66.8854 39.0292 66.5324 38.7387L68.1536 36.8599ZM66.9312 35.7783L65.3558 37.7004C64.9766 37.4408 64.5975 37.1813 64.2118 36.9402L65.5911 34.8945C66.0421 35.1788 66.4932 35.4816 66.9312 35.7845V35.7783ZM62.8391 33.3123C63.3162 33.5595 63.7934 33.8191 64.2576 34.0849L62.8783 36.1306C62.4795 35.9019 62.0742 35.6856 61.6624 35.4693L62.8325 33.3123H62.8391ZM59.9432 31.9897C60.4465 32.1937 60.9433 32.41 61.4336 32.6325L60.2635 34.7894C59.8451 34.5979 59.4202 34.4124 58.9888 34.2394L59.9432 31.9897ZM56.9362 30.9205C57.4592 31.0812 57.9756 31.2481 58.4855 31.4335L57.5311 33.677C57.0931 33.5225 56.6551 33.3741 56.2106 33.2382L56.9428 30.9143L56.9362 30.9205ZM53.8312 30.1232C54.3672 30.2345 54.8967 30.3643 55.4197 30.4941L54.6875 32.8117C54.2365 32.6943 53.7854 32.5892 53.3278 32.4903L53.8312 30.1171V30.1232ZM50.6673 29.5979C51.2099 29.6659 51.7524 29.7401 52.2819 29.8328L51.7786 32.206C51.321 32.1319 50.8569 32.0639 50.3928 32.0083L50.6608 29.6041L50.6673 29.5979ZM47.0001 29.3383C47.7061 29.3507 48.4055 29.3878 49.0985 29.4434L48.8304 31.8476C48.2225 31.8043 47.6146 31.7734 47.0001 31.7549V29.3445V29.3383ZM45.4247 29.3383V31.7549C44.9541 31.7672 44.4899 31.7858 44.0193 31.8167L43.784 29.4125C44.3265 29.3754 44.8691 29.3507 45.4182 29.3383H45.4247ZM42.2151 29.5485L42.4504 31.9526C41.9798 32.0021 41.5222 32.0639 41.0581 32.1319L40.5874 29.7586C41.1234 29.6783 41.666 29.6041 42.2086 29.5485H42.2151ZM39.0381 30.0305L39.5088 32.41C39.0512 32.5027 38.5936 32.6016 38.1426 32.7128L37.4431 30.3828C37.9726 30.253 38.5021 30.1356 39.0381 30.0305ZM35.9266 30.7907L36.626 33.1207C36.175 33.2505 35.737 33.3927 35.299 33.541L34.3773 31.279C34.8872 31.1059 35.4102 30.9391 35.9331 30.7907H35.9266ZM32.9 31.8229L33.8217 34.0849C33.3903 34.2579 32.9588 34.4372 32.5405 34.6226L31.403 32.4533C31.8998 32.2369 32.3966 32.0268 32.9 31.829V31.8229ZM29.8865 33.0466L31.037 35.2159C30.6251 35.4198 30.2199 35.6362 29.8146 35.8587L28.4614 33.8068C28.9321 33.541 29.4093 33.2938 29.8865 33.0528V33.0466ZM27.1214 34.5917L28.4745 36.6436C28.0823 36.8846 27.7031 37.138 27.3175 37.3976L25.7682 35.4693C26.2127 35.1664 26.6572 34.876 27.1148 34.5917H27.1214ZM24.5197 36.3778L26.0689 38.3061C25.7094 38.578 25.3499 38.8623 24.9969 39.159L23.2646 37.3728C23.6764 37.0329 24.0948 36.6992 24.5197 36.3778ZM22.101 38.3803L23.8333 40.1602C23.4934 40.4692 23.1665 40.7782 22.8462 41.0996L20.9505 39.4804C21.3296 39.1034 21.7153 38.7387 22.101 38.3803ZM12.4787 53.9116L14.9365 54.5791C14.8189 55.0055 14.7078 55.432 14.6162 55.8708L12.0995 55.4196C12.2107 54.9128 12.3414 54.4122 12.4787 53.9116ZM11.8054 56.8844L14.3155 57.3355C14.2371 57.7743 14.1717 58.207 14.1194 58.6458L11.5766 58.4171C11.6419 57.9041 11.7204 57.3912 11.8054 56.8844ZM11.4262 59.9004L13.9691 60.1291C13.9364 60.5679 13.9103 61.0067 13.8972 61.4517H11.3412C11.3543 60.9263 11.3805 60.4072 11.4197 59.8942L11.4262 59.9004ZM11.3412 62.9411H13.8972C13.9103 63.3923 13.9299 63.8373 13.956 64.2699L11.4132 64.4862C11.3805 63.9733 11.3543 63.4603 11.3412 62.9411ZM11.5504 65.9757L14.0998 65.7594C14.1521 66.1982 14.211 66.637 14.2829 67.0697L11.7661 67.5085C11.6812 67.0017 11.6093 66.4887 11.5504 65.9757ZM12.4133 70.4874C12.276 69.9868 12.1584 69.4862 12.0472 68.9794L14.5639 68.5406C14.662 68.9732 14.7601 69.4058 14.8777 69.8323L12.4133 70.4874ZM13.3546 73.3922C13.1716 72.9101 13.0016 72.4157 12.8382 71.9213L15.3026 71.2661C15.4399 71.6864 15.5902 72.1067 15.7406 72.5208L13.3481 73.386L13.3546 73.3922ZM13.9168 74.7828L16.3093 73.9175C16.4858 74.3254 16.6754 74.7333 16.8715 75.1289L14.5705 76.1981C14.3417 75.7284 14.1194 75.2587 13.9168 74.7766V74.7828ZM16.0609 78.8928C15.7863 78.4478 15.5249 77.9966 15.2699 77.5392L17.5709 76.47C17.7866 76.8594 18.0154 77.2488 18.2508 77.6258L16.0609 78.8928ZM16.8845 80.1659L19.0744 78.8989C19.3294 79.2698 19.5908 79.6344 19.8654 79.9929L17.8063 81.4453C17.4859 81.025 17.1852 80.5986 16.8845 80.1659ZM19.7935 83.8371C19.4339 83.4477 19.0875 83.0522 18.7541 82.6443L20.8132 81.1919C21.1009 81.538 21.4016 81.8779 21.7023 82.2116L19.7935 83.8371ZM41.9144 95.1287C41.3718 95.0607 40.8293 94.9865 40.2998 94.8938L40.8031 92.5205C41.2607 92.5947 41.7248 92.6627 42.1889 92.7183L41.9209 95.1225L41.9144 95.1287ZM45.5816 95.3882C44.8756 95.3759 44.1762 95.3388 43.4832 95.2832L43.7513 92.879C44.3592 92.9223 44.9671 92.9532 45.5816 92.9717V95.3821V95.3882ZM47.157 95.3882V92.9717C47.6277 92.9593 48.0918 92.9408 48.5624 92.9099L48.7978 95.3141C48.2552 95.3512 47.7126 95.3759 47.1635 95.3882H47.157ZM50.3666 95.1781L50.1313 92.7739C50.602 92.7245 51.0595 92.6627 51.5237 92.5947L51.9943 94.968C51.4583 95.0483 50.9157 95.1225 50.3732 95.1781H50.3666ZM53.5436 94.696L53.0729 92.3166C53.5305 92.2239 53.9881 92.125 54.4391 92.0137L55.1386 94.3437C54.6091 94.4735 54.0796 94.591 53.5436 94.696ZM56.6551 93.9358L55.9557 91.6058C56.4067 91.476 56.8447 91.3339 57.2827 91.1856L58.2044 93.4476C57.6945 93.6206 57.1716 93.7875 56.6486 93.9358H56.6551ZM19.3032 63.1389C19.8262 62.9226 20.4406 62.7001 21.042 62.49C21.0747 62.4776 21.1074 62.4653 21.1466 62.4529C21.2251 63.4727 21.4342 64.4121 21.6957 65.2526C21.5388 65.2155 21.3819 65.1846 21.2251 65.1476C20.6041 65.0116 19.9569 64.8633 19.4078 64.7149C19.3817 64.4553 19.3555 64.1896 19.3359 63.93C19.3163 63.6704 19.3097 63.417 19.3032 63.1389ZM21.3296 58.3306C20.7871 58.0401 20.2314 57.7434 19.7673 57.4591C19.8654 56.9832 19.983 56.4826 20.1334 55.9511C20.689 55.8831 21.3427 55.8399 21.9768 55.7966H21.9833L21.9441 57.7558L21.6303 58.4913C21.5258 58.4356 21.4277 58.3862 21.3296 58.3306ZM23.7156 69.6345C23.4999 70.2526 23.4738 70.9448 23.5195 71.6617C23.3626 71.6679 23.1992 71.6802 23.0489 71.6864C22.4148 71.7173 21.7611 71.7544 21.1989 71.7544C20.9767 71.2352 20.7936 70.7594 20.6302 70.302C21.0551 69.9683 21.565 69.6036 22.0618 69.2575C22.4409 68.9918 22.8201 68.7198 23.1731 68.4541C23.5457 69.035 23.8137 69.3564 23.8137 69.3564L23.7156 69.6345ZM45.8496 44.1218L46.0915 43.7757L45.6535 43.7881C45.4182 43.7881 45.1828 43.8005 44.941 43.8128C42.3458 43.9673 39.8487 44.5977 37.5281 45.6793C35.9658 45.4692 34.3773 45.1911 32.8019 44.8326C32.998 44.7028 33.1941 44.5668 33.3903 44.4432L33.5014 44.3691L33.4883 44.2393C33.4295 43.5965 33.253 42.7683 33.083 41.9711C32.9588 41.3839 32.8281 40.7844 32.7496 40.2529C33.2464 39.981 33.7236 39.7399 34.1943 39.5174C34.6061 39.8635 35.0572 40.2962 35.5017 40.7103C36.1227 41.2974 36.7568 41.8969 37.3059 42.3048L37.4105 42.3852L37.5347 42.3357C38.123 42.107 38.6786 41.9154 39.2277 41.7486L39.3519 41.7115L39.3781 41.5879C39.5153 40.9575 39.5938 40.1231 39.6657 39.3197C39.7245 38.7202 39.7768 38.1021 39.8618 37.5706C40.437 37.4408 40.9665 37.3358 41.4699 37.2492C41.7575 37.688 42.0582 38.2134 42.3589 38.7264C42.7838 39.4556 43.2218 40.2158 43.6271 40.7535L43.7055 40.8524L43.8362 40.8401C44.4376 40.7844 45.0521 40.7412 45.6535 40.7288H45.7842L45.8496 40.6176C46.1765 40.0304 46.5098 39.2331 46.8302 38.4606C47.0524 37.9167 47.2877 37.3605 47.51 36.8846C48.0264 36.9093 48.5624 36.9526 49.1508 37.0144C49.3011 37.5274 49.4449 38.133 49.5822 38.7202C49.7652 39.5113 49.9548 40.3271 50.1705 40.9328L50.2163 41.0502L50.347 41.0749C50.9092 41.1738 51.4844 41.2974 52.1054 41.4519L52.2362 41.4828L52.3277 41.3901C52.8114 40.9204 53.3671 40.2467 53.9031 39.5916C54.2822 39.1281 54.6744 38.646 55.0405 38.2505C55.5373 38.4112 56.0537 38.6027 56.5702 38.8067C56.5636 39.3382 56.5179 39.9501 56.4721 40.5496C56.4067 41.3654 56.3479 42.1997 56.374 42.8487V42.9723L56.4982 43.0279C57.0277 43.2813 57.5572 43.5594 58.0736 43.8561L58.1848 43.9241L58.3024 43.8623C58.9038 43.5409 59.6294 43.0465 60.3354 42.5644C60.8453 42.2183 61.3682 41.8598 61.8324 41.5755C62.1919 41.8166 62.5449 42.0761 62.8979 42.3357C59.7732 43.5223 56.7009 44.4927 53.6808 45.1601C53.2233 44.9747 52.7526 44.814 52.2819 44.6719L52.1839 44.641L52.0989 44.6904C51.5759 44.9686 51.0465 45.327 50.5104 45.7535C48.569 46.0439 46.6406 46.1923 44.7318 46.1799C45.0652 45.4012 45.4378 44.6966 45.8562 44.1095L45.8496 44.1218ZM96.2623 8.89976L96.125 8.64018C101.361 4.8825 109.258 5.482 114.487 8.95538C117.357 10.8342 119.338 13.5721 121.089 16.4028C120.344 16.5882 119.593 16.7983 118.834 17.0208C118.377 16.3904 117.906 15.7724 117.416 15.1852C115.285 12.5462 112.448 10.9455 109.29 9.77119C106.244 8.62164 102.936 8.09013 99.6549 8.3497C99.3673 8.38061 98.8117 8.44241 98.5306 8.47331C98.1645 8.53511 97.7658 8.6031 97.3997 8.65872C97.0402 8.74525 96.6284 8.82559 96.2557 8.89976H96.2623ZM115.612 18.0838C115.147 17.6883 114.657 17.3113 114.128 16.9714C110.081 14.2829 105.244 12.54 100.25 12.5833C99.936 12.5956 99.3412 12.6142 99.0339 12.6265C98.6352 12.6636 98.2103 12.7069 97.805 12.7378C97.4128 12.8058 96.9617 12.8614 96.563 12.9108L96.4519 12.6389C102.315 9.25822 110.402 10.4819 115.631 14.425C116.71 15.2161 117.651 16.1308 118.488 17.1259C117.533 17.4163 116.572 17.7377 115.605 18.0838H115.612ZM114.899 18.3496C114.173 18.6215 113.441 18.9182 112.716 19.2334C112.271 19.425 111.827 19.6166 111.382 19.8143C107.97 18.0653 104.152 17.0023 100.25 17.0332C99.936 17.0455 99.3412 17.0702 99.0339 17.0764C98.6352 17.1135 98.2103 17.1568 97.805 17.1877C97.4128 17.2557 96.9617 17.3113 96.563 17.3607L96.4519 17.0888C102.047 13.8626 109.663 14.8268 114.892 18.3496H114.899ZM108.29 21.174C107.29 21.619 106.296 22.0578 105.316 22.5028C104.669 21.7117 103.656 21.2049 102.525 21.2049C100.577 21.2049 98.9882 22.7068 98.9882 24.5485C98.9882 24.8205 99.0209 25.08 99.0862 25.3334C98.2234 25.729 97.3605 26.1183 96.5042 26.5139C96.3734 26.5695 96.2492 26.6313 96.1185 26.6931C95.8635 26.0256 95.7328 25.3025 95.7328 24.5547C95.7328 21.0195 98.779 18.1395 102.518 18.1395C104.95 18.1395 107.094 19.357 108.29 21.1864V21.174ZM88.7383 79.4552C89.9476 78.8124 91.157 78.1573 92.3663 77.4898V94.4797C90.3464 95.5366 88.3134 96.5502 86.2673 97.4958V82.1375C85.4045 82.0757 84.5547 82.0262 83.7637 82.0077C84.6004 81.5936 85.4372 81.1733 86.2673 80.7469C87.091 80.3204 87.9146 79.8878 88.7383 79.449V79.4552ZM98.8574 73.8805C99.2497 73.6641 99.6419 73.4416 100.034 73.2253V90.2585C98.0076 91.4142 95.9747 92.5514 93.9351 93.6454V76.6184C95.5694 75.7099 97.2101 74.7952 98.8574 73.8743V73.8805ZM101.603 72.3539C103.642 71.2291 105.669 70.1104 107.702 69.035V85.8272C105.675 87.0076 103.642 88.1943 101.603 89.3623V72.3539ZM93.7129 21.7364C93.4057 21.3656 93.0853 20.9824 92.8762 20.6611L92.8369 20.5993L92.8762 20.5374C93.0461 20.247 93.203 19.9565 93.3403 19.666L93.373 19.598H93.4514C93.8436 19.5609 94.347 19.5733 94.8438 19.5857C95.2098 19.598 95.5824 19.6042 95.9093 19.598C96.027 19.2952 96.125 19.0171 96.21 18.7575C95.9616 18.5721 95.6609 18.3743 95.3733 18.1765C94.9614 17.9046 94.5365 17.6203 94.2424 17.3669L94.1901 17.3175L94.2032 17.2495C94.2816 16.8972 94.347 16.5882 94.3927 16.2853L94.4058 16.2112L94.4777 16.1864C94.8372 16.0567 95.3275 15.9331 95.7982 15.8156C96.1512 15.7291 96.5172 15.6364 96.831 15.5375C96.8441 15.3892 96.8506 15.2347 96.8571 15.0863C96.8571 14.9318 96.8571 14.7835 96.8571 14.629C96.5564 14.5116 96.1969 14.3941 95.8505 14.2829C95.3863 14.1346 94.9091 13.98 94.5627 13.8194L94.4908 13.7885V13.7143C94.4646 13.4114 94.4254 13.0962 94.3731 12.744L94.36 12.6698L94.4189 12.6265C94.7326 12.3917 95.1837 12.1383 95.6151 11.8911C95.9158 11.718 96.2296 11.5388 96.4911 11.3719C96.4257 11.1 96.3473 10.8157 96.2557 10.5128C95.9354 10.4819 95.5563 10.4696 95.1968 10.451C94.7065 10.4325 94.1966 10.4078 93.8109 10.3522L93.7325 10.3398L93.7064 10.2718C93.5887 9.96897 93.458 9.66613 93.3076 9.36947L93.2749 9.30148L93.3207 9.23968C93.5495 8.93684 93.9025 8.5722 94.2424 8.2261C94.4842 7.97888 94.7326 7.7193 94.9353 7.48445C94.7849 7.23105 94.6281 6.97765 94.4516 6.71808C94.1378 6.7737 93.7717 6.86023 93.4253 6.94057C92.9415 7.05182 92.4447 7.16925 92.0525 7.21251L91.9741 7.22487L91.9283 7.16925C91.7257 6.90349 91.5034 6.65009 91.2812 6.40906L91.2289 6.35343L91.255 6.28545C91.3858 5.93317 91.6145 5.49436 91.8303 5.07409C91.9871 4.77125 92.1506 4.45605 92.2748 4.17175C92.0525 3.96162 91.8237 3.75767 91.5884 3.5599C91.3008 3.69586 90.9805 3.8751 90.6732 4.04197C90.2418 4.27682 89.7973 4.52404 89.4378 4.67237L89.3658 4.70327L89.307 4.66001C89.0325 4.46223 88.7448 4.27682 88.4572 4.10377L88.3918 4.06669V3.99252C88.418 3.6217 88.503 3.14581 88.588 2.68846C88.6468 2.34854 88.7122 2.00244 88.7514 1.6996C88.4638 1.55127 88.1892 1.42148 87.9081 1.29787C87.6793 1.50182 87.4244 1.75522 87.176 2.00244C86.8295 2.34854 86.4765 2.70082 86.1693 2.94186L86.1105 2.98512L86.0385 2.9604C85.6921 2.83679 85.3718 2.7379 85.058 2.65138L84.9861 2.63284L84.973 2.55867C84.8815 2.20021 84.8292 1.72432 84.7704 1.26079C84.7246 0.920866 84.6854 0.562403 84.6331 0.259563C84.2997 0.191579 83.999 0.142136 83.7049 0.0988729C83.548 0.352269 83.3846 0.661289 83.2211 0.957948C82.9924 1.3844 82.7505 1.8232 82.5282 2.1384L82.4825 2.20021H82.404C82.0576 2.16931 81.7046 2.15695 81.3581 2.15695H81.2797L81.2405 2.09514C81.0444 1.76758 80.8352 1.31023 80.6391 0.871422C80.5018 0.562403 80.358 0.247202 80.2207 -0.0185547C79.9265 -1.34961e-05 79.6193 0.0308885 79.2859 0.0803317C79.2075 0.376991 79.1356 0.729273 79.0702 1.0692C78.9787 1.52654 78.8872 1.99625 78.7695 2.34854L78.7499 2.41652L78.6715 2.42888C78.3446 2.49687 78.0178 2.57103 77.6713 2.66992L77.5994 2.68846L77.5471 2.63902C77.2595 2.37944 76.9326 1.99625 76.6123 1.63161C76.3835 1.37203 76.1547 1.1001 75.939 0.877603C75.6579 0.976489 75.3703 1.09392 75.0696 1.21752C75.0827 1.52036 75.1219 1.87265 75.1546 2.21257C75.2004 2.6761 75.2527 3.15817 75.2461 3.52899V3.60316L75.1742 3.64024C74.8735 3.79475 74.5728 3.96162 74.2852 4.14085L74.2198 4.17794L74.1545 4.14703C73.8015 3.97398 73.3766 3.70204 72.9647 3.43629C72.664 3.2447 72.3633 3.04692 72.0888 2.89241C71.8404 3.07164 71.5985 3.25706 71.3567 3.44865C71.4612 3.73295 71.5985 4.06051 71.7358 4.37571C71.9254 4.81452 72.1149 5.26569 72.2195 5.62415L72.2391 5.69213L72.1868 5.74158C71.9384 5.97643 71.7031 6.21129 71.4809 6.4585L71.4286 6.51413L71.3501 6.50176C70.9644 6.4276 70.4742 6.27927 70.0035 6.13094C69.6571 6.02587 69.3041 5.91463 68.9968 5.84046C68.8073 6.0815 68.6242 6.32871 68.4608 6.56975C68.6438 6.81696 68.8726 7.0889 69.0949 7.35466C69.4021 7.72548 69.7224 8.10867 69.9316 8.43005L69.9708 8.49185L69.9316 8.55366C69.7616 8.84413 69.6048 9.14079 69.4675 9.42509L69.4348 9.49308H69.3564C68.9641 9.53016 68.4543 9.5178 67.964 9.50544C67.5979 9.49308 67.2253 9.4869 66.8985 9.49308C66.7808 9.79592 66.6828 10.0679 66.5978 10.3336C66.8462 10.519 67.1469 10.7168 67.4345 10.9146C67.8463 11.1865 68.2712 11.4708 68.5654 11.7242L68.6242 11.7736L68.6111 11.8416C68.5327 12.1939 68.4673 12.5029 68.4216 12.8058L68.4085 12.8799L68.3366 12.9047C67.9771 13.0344 67.4868 13.1581 67.0161 13.2755C66.6631 13.3682 66.2971 13.4547 65.9833 13.5536C65.9702 13.7081 65.9637 13.8564 65.9572 14.0048C65.9572 14.1593 65.9572 14.3076 65.9572 14.4559C66.2579 14.5734 66.6174 14.6908 66.9638 14.802C67.428 14.9504 67.9052 15.1049 68.2516 15.2656L68.3235 15.2965V15.3706C68.3497 15.6735 68.3889 15.9887 68.4412 16.341L68.4543 16.4151L68.3954 16.4584C68.0817 16.6871 67.6371 16.9405 67.2057 17.1877C66.8985 17.3607 66.5847 17.54 66.3232 17.7068C66.3886 17.9788 66.467 18.2631 66.5586 18.5659C66.8789 18.5968 67.258 18.6092 67.6175 18.6277C68.1143 18.6462 68.6177 18.671 69.0034 18.7266L69.0818 18.739L69.108 18.8069C69.2256 19.1036 69.3564 19.4064 69.5067 19.7093L69.5394 19.7773L69.4936 19.8329C69.2583 20.1357 68.9118 20.5004 68.5719 20.8465C68.3301 21.0937 68.0817 21.3533 67.879 21.5881C68.0294 21.8415 68.1928 22.0949 68.3627 22.3545C68.6765 22.2989 69.0426 22.2123 69.389 22.132C69.8728 22.0207 70.3696 21.9033 70.7618 21.8601L70.8402 21.8477L70.886 21.9033C71.0886 22.1629 71.3044 22.4163 71.5331 22.6635L71.5789 22.7191L71.5528 22.7871C71.422 23.1394 71.1932 23.572 70.9775 23.9985C70.8206 24.3013 70.6572 24.6165 70.533 24.8946C70.7553 25.1048 70.9906 25.3087 71.2194 25.5065C71.507 25.3705 71.8208 25.1913 72.1345 25.0244C72.566 24.7896 73.0105 24.5423 73.3766 24.394L73.4485 24.3631L73.5073 24.4064C73.7818 24.6041 74.0695 24.7896 74.3571 24.9626L74.4225 24.9997V25.0739C74.3963 25.4447 74.3113 25.9206 74.2264 26.3779C74.1675 26.7178 74.1022 27.0639 74.0629 27.3668C74.3506 27.5151 74.6251 27.6449 74.8997 27.7685C75.1285 27.5584 75.3834 27.305 75.6318 27.0639C75.9782 26.7178 76.3312 26.3656 76.6385 26.1245L76.6973 26.0813L76.7692 26.106C77.1157 26.2296 77.436 26.3285 77.7498 26.415L77.8217 26.4335L77.8413 26.5077C77.9328 26.8662 77.9851 27.3482 78.0439 27.8056C78.0897 28.1455 78.1289 28.504 78.1812 28.8006C78.5146 28.8686 78.8153 28.9181 79.1094 28.9613C79.2663 28.7079 79.4297 28.3989 79.5932 28.1023C79.822 27.6758 80.0638 27.237 80.2861 26.9218L80.3318 26.86H80.4103C80.7567 26.8909 81.1097 26.9033 81.4562 26.9033H81.5346L81.5738 26.9651C81.77 27.2926 81.9791 27.75 82.1752 28.1888C82.3125 28.4978 82.4563 28.813 82.5936 29.0788C82.8878 29.0602 83.195 29.0293 83.5284 28.9799C83.6068 28.6832 83.6787 28.3309 83.7441 27.9972C83.8356 27.5398 83.9337 27.0701 84.0448 26.7178L84.0644 26.6499L84.1428 26.6375C84.4697 26.5695 84.7965 26.4953 85.143 26.3965L85.2149 26.3779L85.2672 26.4274C85.5548 26.6869 85.8817 27.0701 86.202 27.4348C86.4308 27.6943 86.6596 27.9663 86.8753 28.1888C87.1629 28.0899 87.444 27.9725 87.7447 27.8489C87.7316 27.546 87.6924 27.1937 87.6597 26.8538C87.614 26.3903 87.5617 25.9082 87.5682 25.5374V25.4632L87.6401 25.4261C87.9408 25.2716 88.2415 25.1048 88.5291 24.9255L88.5945 24.8884L88.6599 24.9193C89.0129 25.0924 89.4377 25.3643 89.8496 25.6301C90.1503 25.8217 90.451 26.0195 90.7255 26.174C90.9739 25.9947 91.2158 25.8093 91.4577 25.6177C91.3531 25.3334 91.2158 25.0059 91.0785 24.6907C90.8955 24.2519 90.6994 23.8007 90.5948 23.4422L90.5752 23.3742L90.6275 23.3248C90.8759 23.0961 91.1112 22.8551 91.3335 22.6079L91.3858 22.5523L91.4642 22.5646C91.8499 22.6388 92.3401 22.7871 92.8108 22.9293C93.1572 23.0343 93.5102 23.1456 93.8175 23.2197C94.0071 22.9787 94.1901 22.7315 94.3535 22.4905C94.1705 22.2432 93.9417 21.9713 93.7194 21.7055L93.7129 21.7364ZM84.0121 6.00115C85.5418 6.41524 86.921 7.19397 88.0258 8.2261C86.908 8.6031 85.7182 9.19642 84.6789 9.83918C83.816 9.30766 82.7897 8.98628 81.6915 8.9492C82.2994 7.76257 83.1362 6.75516 84.0121 5.99497V6.00115ZM76.8477 6.76752C78.1877 6.06296 79.7174 5.66123 81.3516 5.65505C80.8352 6.681 80.4299 7.91707 80.1815 9.07899C79.129 9.2953 78.1877 9.77738 77.4294 10.4449C76.9653 9.19024 76.7954 7.89853 76.8477 6.76752ZM74.7101 8.30026C75.1219 9.38183 75.7625 10.5314 76.462 11.5326C75.9129 12.3422 75.5795 13.2878 75.5337 14.3138C74.259 13.739 73.1674 12.9356 72.3568 12.095C72.7948 10.6488 73.6184 9.35093 74.7101 8.30644V8.30026ZM73.2524 18.8687C73.2524 18.8687 73.2001 18.8687 73.1739 18.8687C72.4287 17.6018 72.0038 16.1555 71.9907 14.6104C73.0955 15.1049 74.4159 15.4881 75.6579 15.7229C75.8802 16.7056 76.3705 17.5956 77.0634 18.3125C75.8475 18.7142 74.5271 18.912 73.2589 18.8687H73.2524ZM78.8022 23.1085C77.2726 22.6944 75.8933 21.9157 74.7885 20.8835C75.926 20.5004 77.1418 19.8947 78.1943 19.2334C79.0441 19.7649 80.0442 20.0986 81.1228 20.1543C80.5149 21.3409 79.6781 22.3545 78.8022 23.1085ZM81.332 16.4028C80.809 16.3842 80.3253 16.1741 79.9658 15.8156C79.2271 15.0678 79.2794 13.8935 80.0704 13.1951C80.4495 12.8614 80.9528 12.6822 81.4758 12.7007C81.9987 12.7192 82.4825 12.9294 82.842 13.2878C83.2015 13.6525 83.3846 14.1222 83.365 14.6166C83.3453 15.1111 83.1231 15.5684 82.744 15.9083C82.3648 16.2483 81.8615 16.4213 81.3385 16.4028H81.332ZM85.9601 22.3359C84.62 23.0405 83.0904 23.4422 81.4562 23.4546C81.9661 22.4348 82.3713 21.2111 82.6198 20.0554C83.6787 19.8576 84.6266 19.3879 85.4045 18.739C85.849 19.9689 86.0124 21.2297 85.9601 22.3421V22.3359ZM88.0977 20.8032C87.6989 19.7525 87.0779 18.6339 86.3981 17.6512C86.9733 16.8354 87.3263 15.8774 87.3786 14.8391C88.6076 15.4077 89.66 16.1926 90.4444 17.0084C90.0065 18.4547 89.1828 19.7525 88.0911 20.797L88.0977 20.8032ZM87.2675 13.4053C87.0452 12.3979 86.5419 11.4893 85.8359 10.7601C87.0256 10.3769 88.3134 10.1915 89.5554 10.2347C89.5816 10.2347 89.6077 10.2347 89.6339 10.2347C90.3791 11.5017 90.804 12.9479 90.817 14.493C89.7515 14.0171 88.4768 13.6401 87.2675 13.3991V13.4053Z" fill="white"/>
<path d="M41.6791 50.2409C41.6791 50.2409 41.6791 50.2347 41.6791 50.2285C33.3642 49.5177 26.6181 47.9047 19.0484 44.4745C17.4076 46.2792 15.525 48.2446 14.5183 50.3274C14.3418 50.6982 14.7536 51.2112 15.2243 51.1926C16.1002 51.1617 18.5515 51.137 20.2577 51.5758C22.5456 52.1568 24.8466 52.7068 27.1672 53.2074C27.396 55.247 27.6182 58.7945 27.847 60.7599C25.2127 61.1678 24.5917 64.1591 25.3565 65.6548C25.8729 66.6622 26.7292 67.4285 27.5921 67.7808C28.1739 68.1207 28.8145 68.2938 29.3963 68.3C29.4747 68.3 29.5466 68.3 29.6185 68.3C30.2396 68.2691 30.7233 68.0713 31.0959 67.7994C30.9259 68.1207 30.6906 68.3803 30.4291 68.5781C29.4813 69.2888 28.9518 70.3519 29.0891 71.5509C29.4224 74.4309 29.7558 76.5446 30.0892 79.5421C30.2657 81.594 30.4095 84.6286 28.6053 86.0995C31.5927 87.1255 35.6194 87.4839 38.999 87.3665C39.5873 87.3665 40.0645 87.3232 40.5287 87.1996C39.4174 85.8523 38.5545 83.3431 38.4042 81.6496C38.1688 79.5545 37.9335 75.4136 37.7047 73.3926C37.587 72.4038 37.7439 71.3716 38.2146 70.426C38.3649 70.117 38.4957 69.808 38.6068 69.4866C39.6396 66.3841 38.2669 63.9304 36.4365 62.4224C36.0966 59.5115 35.7632 57.6079 35.4233 54.8267C36.2666 54.9874 37.0837 55.1357 38.0446 55.2779C38.1035 55.2902 38.1361 55.2902 38.195 55.3026C40.0515 55.5313 42.1629 56.2915 43.771 57.2865C43.8952 57.3669 44.0194 57.4534 44.1501 57.5399C44.1566 57.5399 44.1632 57.5399 44.1697 57.5399C44.928 57.5523 45.3137 57.5523 46.0785 57.5399C45.2418 55.1357 44.4116 52.7316 43.5814 50.3274C42.8427 50.3088 42.2413 50.2903 41.6661 50.2532L41.6791 50.2409ZM29.5466 67.9044C29.4813 67.9044 29.4159 67.9044 29.3505 67.9044C29.3113 67.9044 29.2656 67.9044 29.2198 67.8983C29.9911 67.6572 30.5076 66.9527 30.3311 65.8155C29.9454 66.3223 28.8864 67.1257 28.187 66.3161C27.749 65.8155 28.0889 65.0862 28.5334 64.8328C29.2525 64.4125 30.1676 64.7586 30.7494 65.3705C31.2005 65.8402 31.377 66.3655 31.3639 66.8661C31.024 67.3667 30.4683 67.855 29.5466 67.8983V67.9044ZM35.9463 62.5708C35.9528 62.6449 35.9594 62.6758 35.9659 62.75C36.0247 62.7932 36.0509 62.818 36.1097 62.8612C37.842 64.2704 38.9729 66.5571 38.1492 69.431C38.1492 69.431 38.1492 69.431 38.1492 69.4372C38.1492 69.4372 38.1492 69.4372 38.1492 69.4434C38.0512 69.74 37.927 70.0367 37.7831 70.321C37.2863 71.3098 37.0968 72.4223 37.2275 73.5471C37.4628 75.5681 37.6982 79.5359 37.9335 81.6373C38.1035 83.1824 38.7898 85.4259 39.705 86.8474C39.3128 86.8659 38.914 86.8721 38.5218 86.8721C38.1623 86.4827 37.6851 85.8894 37.3517 85.1848C36.8418 84.0971 36.5542 82.3666 36.4562 81.2974C36.2208 79.196 35.9855 75.7226 35.7502 73.7016C35.6325 72.7066 35.7894 71.6868 36.26 70.766C36.4104 70.4693 36.5542 70.1417 36.6523 69.8451C37.6786 66.829 36.2666 64.258 34.4689 62.7005C34.129 59.7834 33.7956 57.4843 33.4557 54.4559C33.9787 54.5486 34.4559 54.6413 34.92 54.7278C35.2599 57.6759 35.6064 59.6289 35.9463 62.5769V62.5708ZM44.1959 56.996C44.0913 56.9219 43.9867 56.8477 43.8886 56.7797C43.771 56.4707 43.6598 56.1802 43.503 55.7723C42.9539 54.1098 42.4047 52.4473 41.8622 50.7847C42.2871 50.8094 42.7381 50.828 43.2807 50.8465C43.9801 52.8984 44.6796 54.9503 45.3856 57.0084C44.9149 57.0084 44.6796 57.0084 44.2089 57.0084L44.1959 56.996ZM164.011 53.8502C161.488 48.8379 158.925 43.8441 156.31 38.8689C155.637 37.6019 155.572 36.4277 156.121 35.7169C157.428 34.0668 158.795 32.4413 160.206 30.8715C161.311 29.6725 162.743 28.8814 164.495 28.6404C163.998 28.2943 163.743 28.1274 163.246 27.7936C162.9 27.565 162.73 27.4537 162.383 27.2312C162.213 27.1262 162.043 27.0273 161.88 26.9284C161.88 26.9284 161.893 26.9284 161.9 26.9284C161.403 26.6194 161.154 26.471 160.664 26.1806C160.318 25.9766 160.148 25.8777 159.808 25.6861C159.056 25.2844 158.311 24.9012 157.566 24.5304C156.879 24.1719 156.18 23.8258 155.467 23.4859C155.415 23.4612 155.382 23.4488 155.33 23.4241C154.559 23.078 154.173 22.9173 153.402 22.6145C153.402 22.6207 153.408 22.6268 153.415 22.633C153.251 22.565 153.088 22.497 152.924 22.4291C152.872 22.4105 152.846 22.3982 152.787 22.3796C152.022 22.0891 151.637 21.9532 150.872 21.6998C151.545 22.5898 151.663 23.5292 151.172 24.0483C149.277 26.1806 147.473 28.3561 145.727 30.581C145.727 28.8505 145.727 27.1138 145.721 25.3833C145.721 23.5539 146.302 21.9037 147.414 20.6986C146.734 20.5317 146.394 20.4575 145.714 20.3154C145.583 20.2906 145.518 20.2783 145.394 20.2536C145.237 20.2288 145.074 20.2041 144.917 20.1732C144.917 20.1732 144.917 20.167 144.93 20.1609C144.25 20.0372 143.916 19.9754 143.237 19.8766C143.106 19.858 143.047 19.8457 142.916 19.8333C142.106 19.7406 141.302 19.6664 140.504 19.6046C139.746 19.5305 138.975 19.4748 138.197 19.4254C137.399 19.4007 137.007 19.3945 136.216 19.4007C136.216 19.4007 136.223 19.4068 136.229 19.413C136.072 19.413 135.915 19.413 135.758 19.4068C134.967 19.4192 134.575 19.4377 133.784 19.481C135.15 20.7851 136.223 22.9853 136.36 24.8209C137.177 32.0952 137.988 39.3695 138.798 46.6377C139.066 48.4053 138.497 50.7106 137.438 52.1939C138.223 52.1259 138.615 52.095 139.399 52.0579C140.903 52.0085 142.426 52.0146 143.943 52.0888C145.479 52.1753 147.022 52.3298 148.532 52.5461C148.845 52.5956 149.002 52.6203 149.316 52.6759C149.806 52.7625 150.048 52.8119 150.538 52.9108C149.401 51.5017 148.597 50.0122 148.192 48.5042C148.159 48.3929 148.146 48.3311 148.113 48.2199C147.669 46.2174 147.845 43.4733 149.388 41.8293C151.31 45.0864 153.212 48.3497 155.088 51.6314C155.65 52.6265 155.657 53.5721 155.101 54.1221C155.794 54.3446 156.134 54.4621 156.827 54.7216C156.951 54.7649 157.016 54.7896 157.141 54.8391C157.298 54.8947 157.461 54.9565 157.618 55.0183C158.311 55.2902 158.657 55.4324 159.357 55.7352C159.481 55.7909 159.546 55.8156 159.677 55.8774C160.305 56.1493 160.932 56.4398 161.553 56.7426C162.011 56.9713 162.468 57.2123 162.913 57.4534C163.501 57.7686 163.795 57.9293 164.384 58.263C164.802 58.504 165.011 58.6277 165.429 58.8749C165.449 58.8872 165.462 58.8934 165.482 58.9058C166.077 59.2642 166.371 59.4496 166.966 59.8328C167.384 60.1048 167.6 60.2407 168.018 60.525C166.567 58.331 165.253 56.1555 164.011 53.844V53.8502ZM145.446 20.7913C145.577 20.816 145.642 20.8283 145.766 20.8531C145.989 20.8963 146.093 20.921 146.316 20.9705C145.505 22.1571 145.087 23.6281 145.093 25.2288C145.093 27.2807 145.1 29.3326 145.106 31.3783C144.485 32.1817 143.871 32.9852 143.263 33.801C143.256 30.8653 143.25 27.9296 143.243 24.9939C143.243 23.3685 143.688 21.8543 144.551 20.6429C144.851 20.6924 145.152 20.7356 145.453 20.7913H145.446ZM147.512 48.2075C147.544 48.3188 147.558 48.3806 147.59 48.4918C147.924 49.7341 148.525 50.9763 149.349 52.163C149.316 52.1568 149.296 52.1506 149.257 52.1444C148.943 52.0888 148.786 52.0641 148.473 52.0146C148.185 51.9714 147.897 51.9343 147.61 51.8972C146.721 50.7167 146.08 49.4559 145.734 48.1766C145.701 48.0654 145.688 48.0097 145.655 47.8923C145.08 45.2718 145.557 41.5698 148.44 40.2224C148.649 40.5685 148.852 40.9208 149.061 41.2731C147.29 43.016 146.904 45.9393 147.525 48.2075H147.512ZM165.423 58.3866C165.246 58.2754 165.07 58.1703 164.893 58.0652C163.691 56.2235 162.54 54.3755 161.442 52.4596C158.932 47.5895 156.376 42.7379 153.781 37.911C153.114 36.6811 153.042 35.5006 153.591 34.7404C154.866 32.9605 156.219 31.2114 157.644 29.5365C158.611 28.3931 159.834 27.5403 161.298 27.0891C161.677 27.3116 162.056 27.5341 162.436 27.7627C162.677 27.9173 162.802 27.9976 163.043 28.1521C161.684 28.5353 160.533 29.2831 159.612 30.3029C158.2 31.9036 156.84 33.5476 155.533 35.2287C154.898 36.0507 154.983 37.4103 155.748 38.8504C158.363 43.7885 160.926 48.7452 163.442 53.7266C164.344 55.5684 165.423 57.3978 166.587 59.1035C166.116 58.8069 165.887 58.6586 165.416 58.3804L165.423 58.3866ZM75.9326 73.0403C75.0501 65.2098 74.1676 57.3792 73.2917 49.5486C73.4093 47.0827 73.7689 45.2471 74.5337 42.8862C73.7754 43.2261 73.3963 43.393 72.6314 43.7144C71.0691 44.3633 69.5068 44.9875 67.9314 45.587C66.3429 46.1803 64.7479 46.7427 63.1268 47.2866C63.0091 47.3237 62.9568 47.3422 62.8391 47.3793C62.1854 47.5833 61.8586 47.6822 61.2049 47.8738C61.2572 47.9232 61.2834 47.9479 61.3422 48.0035C62.6692 49.1716 63.7608 51.1432 64.055 52.8304C64.676 55.6363 65.3036 58.4361 65.9311 61.242C64.4864 61.7302 63.0418 62.1876 61.5775 62.6202C60.074 63.0466 58.564 63.436 57.0409 63.7945C57.0148 60.7537 56.9821 57.7191 56.9559 54.6784C56.8775 52.7316 57.4723 50.3768 58.4463 48.671C58.4594 48.6463 58.4659 48.634 58.479 48.6092C57.8515 48.7637 57.5377 48.8379 56.9036 48.9801C56.7598 49.011 56.6879 49.0295 56.5441 49.0604C54.851 49.3941 53.1841 49.6661 51.4911 49.8886C49.9418 50.074 48.3926 50.21 46.8041 50.3088C46.0131 50.3336 45.6209 50.3397 44.8299 50.3336C46.1439 52.163 47.046 54.1839 47.4839 56.3533C48.3926 64.4743 49.3012 72.5954 50.2098 80.7164C50.3406 82.6756 50.0268 85.1848 48.922 86.8968C49.713 86.8597 50.1052 86.835 50.8897 86.7608C51.0465 86.7423 51.1969 86.7237 51.3538 86.7052C51.3538 86.7052 51.3538 86.7114 51.3472 86.7176C52.1317 86.6434 52.5239 86.594 53.3083 86.4889C54.0666 86.3653 54.8118 86.2355 55.557 86.0933C56.433 85.9388 57.3154 85.7782 58.2045 85.5927C58.3483 85.5618 58.4202 85.5433 58.564 85.5124C59.1915 85.3641 59.5119 85.2899 60.1394 85.123C60.1394 85.123 60.1329 85.1168 60.1263 85.1107C60.2767 85.0736 60.4336 85.0427 60.5839 84.9994C60.7277 84.9623 60.7996 84.9438 60.9434 84.9005C61.571 84.7275 61.8847 84.641 62.5123 84.4494C61.1526 83.2442 60.0675 81.1985 59.7799 79.4618C59.0935 76.2603 58.4136 73.0651 57.7273 69.8636C59.2569 69.4681 60.7604 69.0416 62.2639 68.5843C63.7216 68.1578 65.1728 67.7005 66.624 67.2184C66.6763 70.5311 66.7286 73.85 66.7744 77.1627C66.8659 79.2146 66.1468 81.5693 65.3036 83.442C65.2774 83.4976 65.2643 83.5223 65.2382 83.5779C65.8919 83.3554 66.2122 83.238 66.8659 83.0032C66.9835 82.9599 67.0358 82.9413 67.1535 82.8981C67.3039 82.8425 67.4542 82.7807 67.6045 82.725C67.6045 82.725 67.6045 82.7312 67.6045 82.7374C68.2517 82.4964 68.5786 82.3666 69.2257 82.1132C69.3434 82.0699 69.3957 82.0452 69.5133 82.0019C70.3304 81.662 71.1345 81.3221 71.9385 80.9698C72.723 80.6361 73.5008 80.3023 74.2853 79.9562C75.0436 79.6101 75.4227 79.4371 76.181 79.0786C76.3313 79.0106 76.4751 78.9426 76.6255 78.8746C77.3838 78.51 77.7629 78.3308 78.5147 77.9538C77.0765 76.8846 76.0502 74.7523 75.9653 73.0465L75.9326 73.0403ZM56.6029 49.6537C56.7467 49.6228 56.8186 49.6043 56.9625 49.5734C57.152 49.5301 57.2435 49.5116 57.4331 49.4683C56.7141 51.0505 56.2957 53.0529 56.348 54.7525C56.3741 57.8118 56.4068 60.8711 56.433 63.9304C56.433 63.9304 56.433 63.9304 56.433 63.9428C55.8381 64.0788 55.2432 64.2147 54.6418 64.3383C54.6157 61.279 54.583 58.2197 54.5569 55.1666C54.485 53.4608 54.9425 51.4337 55.7335 49.8206C56.0211 49.765 56.3088 49.7155 56.6029 49.6599V49.6537ZM57.1259 70.0614C57.8123 73.269 58.4921 76.4705 59.1785 79.6781C59.5445 81.3839 60.2832 82.9352 61.3357 84.1898C61.1461 84.2454 61.0546 84.2701 60.865 84.3196C60.7212 84.3567 60.6493 84.3814 60.5055 84.4185C60.2113 84.4926 59.9237 84.5544 59.6295 84.6286C58.5052 83.3678 57.6358 81.5878 57.3808 80.0427C56.6944 76.8166 56.0081 73.5966 55.3217 70.3704C55.9165 70.2406 56.5114 70.1047 57.0997 69.9625C57.1063 69.9934 57.1128 70.0305 57.1193 70.0676L57.1259 70.0614ZM76.5274 78.2937C76.2464 78.4235 75.9718 78.5471 75.6907 78.6769C74.501 77.515 73.6773 75.6423 73.5989 74.1157C72.7164 66.2604 71.8339 58.4052 70.9449 50.5499C71.056 48.3373 71.3567 46.6377 71.9712 44.5982C72.2131 44.4993 72.4549 44.4004 72.6968 44.3015C73.0302 44.1593 73.1936 44.0852 73.5205 43.943C72.7883 45.6735 72.4419 47.9541 72.7033 49.8082C73.5858 57.645 74.4683 65.4817 75.3508 73.3185C75.56 75.1788 76.2464 76.7548 77.3446 77.8981C77.0177 78.0588 76.8543 78.1392 76.5209 78.2937H76.5274ZM131.13 25.2164C130.862 23.4241 131.418 21.0817 132.483 19.5737C131.699 19.6417 131.307 19.6788 130.522 19.7715C128.98 19.9445 127.424 20.1918 125.888 20.5131C124.515 20.7913 123.149 21.1188 121.822 21.4896C121.58 21.5576 121.456 21.5885 121.214 21.6565C120.684 21.8048 120.423 21.879 119.9 22.0335C120.978 22.9606 121.698 24.2399 121.972 25.6923C122.639 29.2708 123.306 32.843 123.979 36.4215C121.717 33.0779 119.442 29.7405 117.154 26.4154C116.507 25.4822 116.514 24.141 117.167 22.905C116.376 23.1769 115.586 23.4674 114.795 23.7578C114.795 23.7517 114.801 23.7393 114.808 23.7331C114.043 24.0112 113.664 24.1596 112.899 24.4562C112.899 24.4686 112.899 24.4748 112.899 24.481C112.886 24.481 112.873 24.4933 112.853 24.4995C112.853 24.4933 112.847 24.4871 112.84 24.481C111.5 25.0186 110.173 25.5687 108.852 26.1373C108.127 26.4463 107.401 26.7553 106.676 27.0767C106.525 27.1447 106.382 27.2065 106.231 27.2745C106.146 27.3116 106.107 27.3301 106.029 27.3672C105.349 27.6762 105.015 27.8307 104.335 28.1459C104.401 28.1954 104.434 28.2201 104.505 28.2695C105.656 29.1286 106.375 30.4759 106.565 32.1137C107.467 40.0988 108.362 48.0901 109.264 56.0752C109.506 57.9293 109.009 60.2407 108.14 61.9094C108.813 61.5695 109.147 61.3965 109.82 61.0627C109.898 61.0195 109.944 61.0009 110.023 60.9638C111.441 60.2716 112.873 59.5918 114.317 58.9367C115.736 58.3001 117.167 57.6759 118.606 57.0826C118.73 57.0331 118.789 57.0084 118.913 56.9589C119.553 56.7056 119.874 56.5758 120.514 56.3347C119.194 55.2779 118.318 53.7822 117.978 51.9899C117.383 48.8132 116.782 45.6426 116.187 42.4659C118.508 45.7601 120.822 49.0604 123.116 52.3669C123.672 53.1765 123.672 54.3199 123.109 55.3953C123.789 55.1604 124.129 55.0492 124.816 54.8329C124.901 54.8082 124.94 54.7896 125.025 54.7649C126.535 54.3323 128.038 53.9367 129.555 53.5597C131.098 53.2074 132.64 52.8861 134.209 52.5956C134.987 52.4782 135.379 52.4225 136.164 52.3298C134.804 51.0876 133.732 48.9368 133.601 47.1445C132.784 39.8331 131.96 32.5217 131.143 25.2164H131.13ZM116.226 23.8011C115.925 24.9136 116.063 26.0199 116.625 26.8357C119.187 30.5439 121.737 34.2707 124.26 38.0037C124.521 39.4004 124.783 40.7972 125.044 42.1878C121.658 37.194 118.239 32.225 114.788 27.2745C114.265 26.5205 114.167 25.4884 114.507 24.4439C115.082 24.2276 115.651 24.0112 116.233 23.8011H116.226ZM117.39 52.2618C117.684 53.8193 118.357 55.1543 119.364 56.1988C119.155 56.2791 119.05 56.3224 118.841 56.4027C118.717 56.4522 118.658 56.4769 118.534 56.5263C118.259 56.6376 117.985 56.755 117.71 56.8724C116.644 55.8712 115.925 54.5362 115.625 52.954C114.664 47.8367 113.703 42.7193 112.742 37.6081C113.605 38.8195 114.461 40.0308 115.317 41.2422C116.01 44.9134 116.697 48.5907 117.39 52.2618ZM134.137 52.0517C133.856 52.1073 133.575 52.163 133.294 52.2186C132.15 50.9763 131.3 49.1222 131.196 47.5586C130.372 40.2286 129.555 32.9048 128.731 25.5749C128.496 23.968 128.901 21.9408 129.718 20.4204C130.006 20.3834 130.3 20.3463 130.588 20.3154C130.928 20.2721 131.098 20.2536 131.438 20.2165C130.647 21.8048 130.339 23.5539 130.535 25.2906C131.353 32.602 132.176 39.9196 132.993 47.231C133.189 48.9677 133.876 50.5622 134.987 51.9219C134.647 51.9714 134.477 51.9899 134.137 52.0455V52.0517ZM102.466 61.9774C102.793 61.3841 103.08 60.7784 103.322 60.1728C104.081 57.577 104.309 55.6611 104.192 52.9726C103.505 46.8911 102.825 40.8157 102.139 34.7342C101.871 32.7689 102.531 30.4203 103.316 28.6218C102.538 28.9988 101.76 29.3758 100.982 29.759V29.7467C99.5047 30.4759 98.0274 31.2176 96.5565 31.9592C95.1903 32.6453 93.8241 33.3375 92.4644 34.0359C91.6865 34.4314 90.9152 34.8331 90.1373 35.2287C90.1831 35.2596 90.2027 35.2719 90.2419 35.3028C91.4316 36.1743 92.2291 37.5092 92.5298 39.1718C93.6215 45.2595 94.7066 51.341 95.7983 57.4287C95.9682 58.9181 95.9094 60.1604 95.6348 61.1678C95.3603 62.169 94.8831 63.0034 94.2229 63.6709C93.8241 64.0726 93.3469 64.4681 92.7978 64.8451C92.2356 65.0862 91.7258 65.2407 91.2747 65.3025C90.5295 65.4137 89.9346 65.1665 89.4705 64.5608C89.0064 63.9552 88.6992 62.8983 88.5292 61.3965C88.1958 54.8143 87.8624 48.2384 87.5225 41.6563C87.3918 39.8207 87.8951 37.6081 88.7319 35.958C88.7319 35.958 88.7319 35.9518 88.7319 35.9456C86.9407 36.8665 85.1431 37.775 83.3389 38.6773C80.7634 39.9567 78.1682 41.2113 75.5469 42.4226C75.5861 42.4536 75.6057 42.4721 75.645 42.503C76.9785 43.5042 77.9263 45.4758 78.0309 47.1074C78.7304 53.3372 79.4364 59.5609 80.1358 65.7907C80.2208 67.6943 80.9856 70.1603 82.4303 71.5447C82.7702 71.8661 83.1624 72.138 83.5677 72.3481C84.1364 72.6448 84.1299 73.578 83.5677 74.3444C83.0905 74.9872 82.8552 75.3086 82.3845 75.9451C83.1689 75.5249 83.9468 75.1046 84.7247 74.6843C84.7182 74.6967 84.7117 74.7029 84.6986 74.7152C91.229 71.1553 97.6874 67.4842 104.224 63.9304C103.675 63.8501 103.401 63.8068 102.858 63.7265C102.178 63.6276 101.995 62.7994 102.459 61.9589L102.466 61.9774ZM86.9538 41.9344C87.2872 48.5165 87.6271 55.0986 87.9605 61.687C87.9605 61.6931 87.9605 61.6993 87.9605 61.7055C87.9605 61.7117 87.9605 61.7179 87.9605 61.724C88.1435 63.3248 88.4769 64.4311 88.9803 65.0924C89.4509 65.7166 90.0654 66.0132 90.8171 65.9885C90.1242 66.3099 89.5098 66.5138 88.9672 66.588C88.222 66.6931 87.6206 66.4397 87.163 65.834C86.7054 65.2221 86.3851 64.1653 86.2217 62.6573C85.8818 56.0628 85.5484 49.4683 85.2085 42.8676C85.0973 41.304 85.4503 39.4622 86.0713 37.9295C86.627 37.6452 87.1891 37.3609 87.7448 37.0766C87.1434 38.7453 86.8688 40.4078 86.9473 41.9406L86.9538 41.9344ZM101.067 65.08C100.917 65.0553 100.753 65.0367 100.551 65.0058C99.8708 64.9131 99.6877 64.0788 100.152 63.2321C100.479 62.6326 100.806 62.0083 101.008 61.415C101.845 58.9552 101.989 56.8786 101.871 54.1839C101.185 48.0901 100.498 41.99 99.8119 35.8962C99.5766 34.1842 100.041 32.1817 100.681 30.4945C101.224 30.2287 101.766 29.9568 102.316 29.691C101.668 31.2979 101.342 33.3622 101.557 35.0185C102.244 41.1 102.93 47.1816 103.61 53.2693C103.721 55.8279 103.512 57.6573 102.799 60.1357C102.577 60.6919 102.309 61.2605 102.002 61.8229C101.681 62.4101 101.564 63.0219 101.675 63.5164C101.773 63.9366 102.034 64.2271 102.407 64.3383C101.963 64.5794 101.518 64.8266 101.074 65.0738L101.067 65.08Z" fill="white"/>
<path d="M42.3201 92.8237C39.1693 92.7681 36.4304 92.5209 34.1359 92.1933C25.5856 90.982 21.1732 88.5222 20.9902 88.4171L20.2776 88.0154C20.2776 88.0154 22.8989 84.6594 23.4154 82.6199C23.8076 81.0624 23.18 74.814 23.18 74.814C23.2127 73.2442 22.6048 71.3098 23.1277 69.8265L23.2258 69.5422C23.2258 69.5422 19.4017 65.1912 20.7483 59.3321L21.3039 58.0343L21.3432 56.0133C20.5064 55.7166 7.1123 53.3619 7.1123 53.3619C7.1123 53.3619 9.21065 47.7068 14.7409 42.3422C15.643 41.4646 19.637 38.7761 19.637 38.7761L20.4803 39.32C27.9062 43.8193 36.548 45.4324 44.1439 45.5746C60.0874 45.8836 76.9396 34.9319 96.5111 25.9827C101.747 23.5909 107.166 21.1126 112.834 18.6651C121.672 14.8456 130.863 13.9989 137.027 14.345C142.289 14.6417 152.689 17.1138 157.533 19.0174C161.756 20.6738 173.065 27.0457 173.287 27.2744L173.438 27.4289L175.039 34.2212L173.751 33.5537C173.712 33.5352 169.43 31.3597 165.985 32.6266C164.279 33.257 163.024 34.6476 162.259 36.7675C162.103 37.2001 163.796 39.456 169.483 52.7253C172.555 59.9007 176.111 67.3976 176.144 67.4655L176.987 69.2331L166.861 64.4062C161.017 61.2172 154.722 58.7388 149.218 58.0961C143.315 57.41 137.576 57.991 131.909 59.4187C120.953 62.1875 110.284 68.1392 99.3089 74.264C89.5101 79.7275 79.3779 85.3825 68.945 88.6025C56.7798 92.354 49.9226 92.9473 42.3136 92.8175L42.3201 92.8237ZM22.4741 87.6013C24.0429 88.3244 28.0958 89.956 34.4497 90.846C36.5611 91.1427 39.0517 91.3713 41.9083 91.4393C49.4192 91.6185 56.2699 91.0747 68.507 87.3046C78.7896 84.1341 88.8499 78.5223 98.5833 73.0897C109.245 67.1442 120.266 60.9947 131.49 58.1517C137.563 56.6128 143.217 56.1369 148.774 56.6931C154.997 57.3173 161.593 59.944 167.587 63.2134L174.006 66.2727C172.836 63.7635 170.3 58.2629 168.156 53.2506C161.821 38.4733 160.677 36.9653 160.906 36.3287C161.821 33.8009 163.358 32.126 165.489 31.3473C168.345 30.3028 171.503 31.1557 173.209 31.8046L172.084 28.0655C171.156 27.1755 161.037 21.8233 156.984 20.2967C152.245 18.5106 142.152 16.1435 137.04 15.7542C131.033 15.2968 122.986 15.7974 113.448 19.9197C107.794 22.361 102.388 24.8332 97.1583 27.225C77.4233 36.2484 60.4143 47.268 44.2224 46.9837C36.4761 46.8477 27.6644 45.2285 20.0358 40.6797C19.2514 41.2792 18.2577 41.9961 17.2445 42.7192C13.7865 45.1667 11.9039 49.0789 10.0147 52.2061L22.827 54.9008L22.7486 58.8563L22.6767 59.0046C20.7287 64.2641 24.9189 69.1033 24.9189 69.1033L24.5136 70.2591C24.0364 71.6126 24.6639 73.4111 24.6378 74.8388C24.6378 74.8388 25.2196 81.081 24.8731 82.6446C24.4613 84.5234 22.4806 87.6013 22.4806 87.6013H22.4741Z" fill="white"/>
</g>
<defs>
<clipPath id="clip0_718_916">
<rect width="177" height="106" fill="white"/>
</clipPath>
</defs>
</svg>
